<svg width="36" height="43" viewBox="0 0 36 43" fill="none" xmlns="http://www.w3.org/2000/svg">
<g id="&#240;&#159;&#166;&#134; icon &#34;notification&#34;">
<g id="Group">
<path id="Vector" opacity="0.4" d="M34.958 26.367L32.632 22.8626C32.1436 22.0815 31.7016 20.6038 31.7016 19.7382V14.3972C31.7016 7.51518 25.5378 1.89975 17.9318 1.89975C10.326 1.89975 4.1621 7.51518 4.1621 14.3972V19.7382C4.1621 20.6038 3.72017 22.0815 3.23171 22.8415L0.882468 26.367C-0.047925 27.7814 -0.257263 29.3436 0.324233 30.7791C0.882468 32.1935 2.20828 33.2912 3.9295 33.819C8.44191 35.2123 13.1869 35.8879 17.9318 35.8879C22.6768 35.8879 27.4218 35.2123 31.9342 33.8401C33.5624 33.3546 34.8184 32.2357 35.4232 30.7791C36.028 29.3225 35.8651 27.718 34.958 26.367Z" fill="#292D32"/>
<path id="Vector_2" d="M23.1208 2.7866C21.5159 2.21662 19.7714 1.89996 17.9339 1.89996C16.1196 1.89996 14.3751 2.1955 12.7701 2.7866C13.7704 1.07664 15.7474 0 17.9339 0C20.1435 0 22.0974 1.07664 23.1208 2.7866Z" fill="#292D32"/>
<path id="Vector_3" d="M24.4674 38.0202C23.4905 40.4691 20.9086 42.2212 17.8849 42.2212C16.0473 42.2212 14.2331 41.5457 12.9537 40.3424C12.2094 39.7091 11.6512 38.8647 11.3256 37.9991C11.6279 38.0413 11.9303 38.0624 12.256 38.1047C12.7909 38.168 13.3492 38.2313 13.9074 38.2736C15.2332 38.3791 16.5823 38.4424 17.9314 38.4424C19.2572 38.4424 20.583 38.3791 21.8855 38.2736C22.374 38.2313 22.8625 38.2102 23.3276 38.1469C23.6998 38.1047 24.072 38.0624 24.4674 38.0202Z" fill="#292D32"/>
</g>
</g>
</svg>
